<svg xmlns="http://www.w3.org/2000/svg" xmlns:xlink="http://www.w3.org/1999/xlink" width="512" height="512" viewBox="0 0 512 512">
  <defs>
    <clipPath id="clip-compressme_logo">
      <rect width="512" height="512"/>
    </clipPath>
  </defs>
  <g id="compressme_logo" clip-path="url(#clip-compressme_logo)">
    <rect id="Rectangle_1" data-name="Rectangle 1" width="512" height="512" fill="#fff" opacity="0"/>
    <g id="Group_1" data-name="Group 1" transform="translate(-33.547 0)">
      <path id="Union_13" data-name="Union 13" d="M18.311,8.668a27.837,27.837,0,0,0-4.634,8.207C12.414,20.2,12.023,23.76,11.04,29.4A167.284,167.284,0,0,0,9.2,48.457c-.408,7.534-.076,35.794-.011,40.973-.1,3.547-.2,7.212-.259,10.685-.249,14,0,24.9,0,24.9s-.1,7.033-2.336,11.092A11.359,11.359,0,0,1,0,141.249s3.463,7.282,7.664,11.422,8.663,6.483,14.455,6.574,12.767-1.038,18.653-8.023c2.272-2.7,3.176-5.9,4.117-8.966s1.614-5.324,2.624-13.19.968-9.971,1.418-18.274c.408-7.533.076-35.791.011-40.973.1-3.547.2-7.212.259-10.685.249-14,0-24.9,0-24.9s.1-7.032,2.336-11.091,9.293-5.856,9.293-5.856-3.45-6.877-7.652-11.018S41.8.1,36.011,0q-.209,0-.419,0C29.929,0,24.055,1.851,18.311,8.668Z" transform="translate(234.663 339.966) rotate(-169)" fill="#bbc2c6"/>
      <path id="Union_9" data-name="Union 9" d="M18.311,8.668a27.837,27.837,0,0,0-4.634,8.207C12.414,20.2,12.023,23.76,11.04,29.4A167.284,167.284,0,0,0,9.2,48.457c-.408,7.534-.076,35.794-.011,40.973-.1,3.547-.2,7.212-.259,10.685-.249,14,0,24.9,0,24.9s-.1,7.033-2.336,11.092A11.359,11.359,0,0,1,0,141.249s3.463,7.282,7.664,11.422,8.663,6.483,14.455,6.574,12.767-1.038,18.653-8.023c2.272-2.7,3.176-5.9,4.117-8.966s1.614-5.324,2.624-13.19.968-9.971,1.418-18.274c.408-7.533.076-35.791.011-40.973.1-3.547.2-7.212.259-10.685.249-14,0-24.9,0-24.9s.1-7.032,2.336-11.091,9.293-5.856,9.293-5.856-3.45-6.877-7.652-11.018S41.8.1,36.011,0q-.209,0-.419,0C29.929,0,24.055,1.851,18.311,8.668Z" transform="translate(304.663 339.966) rotate(-169)" fill="#bbc2c6"/>
      <g id="Union_10" data-name="Union 10" transform="matrix(0.982, -0.191, 0.191, 0.982, 210.951, 183.643)" fill="#eee">
        <path d="M 35.5914306640625 159.7484436035156 C 32.35816955566406 159.7484741210938 29.47421073913574 159.15234375 26.77474975585938 157.9260559082031 C 23.58201026916504 156.4756622314453 20.68827056884766 154.1784057617188 17.92817115783691 150.9030151367188 C 16.02287101745605 148.6423034667969 14.47911071777344 145.9101867675781 13.20871067047119 142.5505523681641 C 12.19979095458984 139.8933868408203 11.74391078948975 137.1254730224609 11.11295032501221 133.2945098876953 C 10.93869018554688 132.2364501953125 10.75849056243896 131.1423950195312 10.54773044586182 129.9324035644531 L 10.54617023468018 129.9234924316406 L 10.54495048522949 129.9145355224609 C 9.25593090057373 120.5141677856445 9.149070739746094 119.0953674316406 8.700550079345703 110.8188705444336 C 8.293279647827148 103.30322265625 8.619268417358398 75.37504577636719 8.68915843963623 69.8228759765625 C 8.573796272277832 65.90821075439453 8.486578941345215 62.31476211547852 8.429890632629395 59.14254760742188 C 8.186612129211426 45.47719573974609 8.420923233032227 34.63021087646484 8.429717063903809 34.23408508300781 C 8.424257278442383 33.95474624633789 8.267163276672363 27.22344398498535 6.15531063079834 23.38450813293457 C 4.052910327911377 19.56200981140137 -0.07932949066162109 18.49462890625 -0.1208294928073883 18.48428916931152 L -0.7141295075416565 18.33650970458984 L -0.4515295028686523 17.78436851501465 C -0.3085694909095764 17.48378944396973 3.097970485687256 10.37514877319336 7.313470363616943 6.221068859100342 C 9.552550315856934 4.014129161834717 11.76667022705078 2.410709142684937 14.08233070373535 1.319269061088562 C 16.57785034179688 0.1430290192365646 19.20419120788574 -0.4511509835720062 22.11139106750488 -0.4972309768199921 C 22.32137107849121 -0.5005509853363037 22.53145027160645 -0.5022509694099426 22.73581123352051 -0.5022509694099426 C 26.2066707611084 -0.5022509694099426 29.21263122558594 -0.005450974218547344 31.92549133300781 1.016548991203308 C 35.42039108276367 2.333128929138184 38.52566909790039 4.582828998565674 41.15505218505859 7.703108787536621 C 43.38064956665039 10.34490871429443 44.32007217407227 13.41854858398438 45.22853088378906 16.3910083770752 C 45.27481079101562 16.54242897033691 45.32101058959961 16.69358825683594 45.3673095703125 16.84440994262695 C 46.26705169677734 19.77332878112793 46.97774887084961 22.08684921264648 48.00875091552734 30.11784934997559 C 48.82637023925781 36.48128890991211 48.95547103881836 39.06790924072266 49.21269226074219 44.22113037109375 C 49.2735710144043 45.44096755981445 49.34257125854492 46.82357025146484 49.42956924438477 48.42894744873047 C 49.83676147460938 55.94232177734375 49.51081085205078 83.87224578857422 49.44094085693359 89.42479705810547 C 49.55636596679688 93.34239959716797 49.64360427856445 96.9359130859375 49.70022964477539 100.1052703857422 C 49.94350814819336 113.770622253418 49.70919799804688 124.6176071166992 49.70040512084961 125.0137329101562 C 49.70586395263672 125.2930450439453 49.86295700073242 132.0234680175781 51.97478866577148 135.8624114990234 C 54.07797241210938 139.6871337890625 60.88492965698242 141.4577331542969 60.95344924926758 141.4751434326172 L 61.55567169189453 141.6284484863281 L 61.27703094482422 142.1839141845703 C 61.13467025756836 142.4677124023438 57.74182891845703 149.1824340820312 53.52927017211914 153.3336486816406 C 51.51914978027344 155.3144683837891 48.69163131713867 156.9635467529297 45.35232925415039 158.1026153564453 C 42.38935089111328 159.1133117675781 39.07461166381836 159.6966094970703 36.01871109008789 159.7450561523438 C 35.87541198730469 159.747314453125 35.73165130615234 159.7484436035156 35.5914306640625 159.7484436035156 Z" stroke="none"/>
        <path d="M 35.59142684936523 159.2484436035156 C 35.7313232421875 159.2484436035156 35.87117385864258 159.247314453125 36.01079940795898 159.2451019287109 C 41.80229949951172 159.1533203125 48.97709274291992 157.1175079345703 53.17829895019531 152.9775085449219 C 57.38040542602539 148.8366088867188 60.83009338378906 141.959716796875 60.83009338378906 141.959716796875 C 60.83009338378906 141.959716796875 53.76869583129883 140.1623992919922 51.53669738769531 136.1034240722656 C 49.30379867553711 132.0444030761719 49.20030212402344 125.0127105712891 49.20030212402344 125.0127105712891 C 49.20030212402344 125.0127105712891 49.44959259033203 114.1172943115234 49.20030212402344 100.1142120361328 C 49.13823699951172 96.64076995849609 49.04538345336914 92.97623443603516 48.94084167480469 89.42896270751953 C 49.0060920715332 84.2471923828125 49.33853149414062 55.98856353759766 48.93030166625977 48.45600128173828 C 48.48030090332031 40.15260696411133 48.52350997924805 38.04750061035156 47.51280212402344 30.1815013885498 C 46.50300979614258 22.31550216674805 45.83069610595703 20.05560493469238 44.88930130004883 16.9911060333252 C 43.94879913330078 13.92660522460938 43.0443000793457 10.72171020507812 40.77269744873047 8.025293350219727 C 34.88669586181641 1.040398359298706 27.91081237792969 -0.08910305052995682 22.11930084228516 0.002709859283640981 C 16.32780075073242 0.09450152516365051 11.86559200286865 2.436314105987549 7.66440486907959 6.577209949493408 C 3.463196277618408 10.717209815979 8.839924703352153e-06 17.99910545349121 8.839924703352153e-06 17.99910545349121 C 8.839924703352153e-06 17.99910545349121 4.361404895782471 19.08539772033691 6.593404769897461 23.14350128173828 C 8.826300621032715 27.20250129699707 8.929800033569336 34.235107421875 8.929800033569336 34.235107421875 C 8.929800033569336 34.235107421875 8.680508613586426 45.13050079345703 8.929800033569336 59.13360595703125 C 8.991863250732422 62.60702133178711 9.084696769714355 66.27143859863281 9.189237594604492 69.81871032714844 C 9.124030113220215 74.99758148193359 8.791550636291504 103.2579193115234 9.199800491333008 110.7917938232422 C 9.649800300598145 119.0952072143555 9.75240421295166 120.4542083740234 11.0403003692627 129.8466033935547 C 12.02309226989746 135.4887084960938 12.4136962890625 139.0482025146484 13.67640495300293 142.3737030029297 C 14.64119625091553 144.9252166748047 16.03800964355469 147.8843994140625 18.31050872802734 150.580810546875 C 24.05459213256836 157.3973083496094 29.92886352539062 159.2484741210938 35.59142684936523 159.2484436035156 M 35.59142684936523 160.2484436035156 C 32.28534317016602 160.2484588623047 29.33371734619141 159.6377105712891 26.56794548034668 158.3812866210938 C 23.3060302734375 156.8995056152344 20.35488319396973 154.5587158203125 17.54582214355469 151.2252044677734 C 15.6034049987793 148.9204559326172 14.03173828125 146.1407775878906 12.74105072021484 142.7274017333984 C 11.71455097198486 140.0240173339844 11.25525856018066 137.2352905273438 10.61955070495605 133.3755798339844 C 10.44548797607422 132.3187103271484 10.26548767089844 131.225830078125 10.05513381958008 130.0182037353516 L 10.04957103729248 129.9824523925781 C 8.75788402557373 120.5624618530273 8.650800704956055 119.1405868530273 8.201258659362793 110.8459167480469 C 7.793469905853271 103.3203506469727 8.118844032287598 75.40858459472656 8.189056396484375 69.82716369628906 C 8.073757171630859 65.9130859375 7.98659610748291 62.32148361206055 7.929967403411865 59.15148162841797 C 7.688382148742676 45.58194351196289 7.91743803024292 34.78727340698242 7.929593563079834 34.23373413085938 C 7.921732902526855 33.86172485351562 7.752342700958252 27.32496070861816 5.717237949371338 23.62550163269043 C 3.718863010406494 19.99218940734863 -0.2023036628961563 18.97927284240723 -0.2416786551475525 18.96945953369141 L -1.428261995315552 18.67391777038574 L -0.9030536413192749 17.56960487365723 C -0.7585744857788086 17.26579284667969 2.684988021850586 10.0801477432251 6.962508678436279 5.864939212799072 C 9.242404937744141 3.617751598358154 11.50161266326904 1.982897400856018 13.86913394927979 0.8669806718826294 C 16.43027877807617 -0.3401651382446289 19.12373733520508 -0.9499359726905823 22.10344696044922 -0.9971651434898376 C 22.31653022766113 -1.000540137290955 22.52925872802734 -1.002248525619507 22.73575973510742 -1.002248525619507 C 26.26790428161621 -1.002248525619507 29.33155059814453 -0.4949568212032318 32.10173797607422 0.5486265420913696 C 35.67763519287109 1.89573073387146 38.85223770141602 4.194438934326172 41.53738403320312 7.380897521972656 C 43.82892608642578 10.10095977783203 44.78353118896484 13.22433471679688 45.70669555664062 16.24487686157227 C 45.75292587280273 16.39610481262207 45.799072265625 16.54708480834961 45.84529876708984 16.69771003723145 C 46.75201034545898 19.64935493469238 47.46825790405273 21.9809398651123 48.50465393066406 30.05416870117188 C 49.32477951049805 36.43685531616211 49.45419692993164 39.02993774414062 49.71205139160156 44.19610595703125 C 49.77290344238281 45.41545867919922 49.84188461303711 46.79752349853516 49.92884063720703 48.40187835693359 C 50.33665084838867 55.92684555053711 50.01123809814453 83.83899688720703 49.94102478027344 89.42050170898438 C 50.05634307861328 93.33566284179688 50.14352416992188 96.92730712890625 50.20013427734375 100.0963363647461 C 50.44171905517578 113.6658477783203 50.21266174316406 124.4605407714844 50.20050811767578 125.0140762329102 C 50.20836639404297 125.3860321044922 50.37775802612305 131.9219360351562 52.41286468505859 135.6214141845703 C 54.40713500976562 139.2480621337891 61.01088333129883 140.9737548828125 61.07736206054688 140.9907684326172 L 62.27988433837891 141.2984313964844 L 61.72392654418945 142.4080810546875 C 61.58005142211914 142.6949157714844 58.1509895324707 149.4811859130859 53.88019561767578 153.6897735595703 C 51.81684112548828 155.7230682373047 48.92377853393555 157.4126434326172 45.51375961303711 158.5758361816406 C 42.50263214111328 159.6029663085938 39.13338470458984 160.1957244873047 36.02665328979492 160.2449798583984 C 35.88153076171875 160.2472686767578 35.73511123657227 160.2484436035156 35.59142684936523 160.2484436035156 Z" stroke="none" fill="#eee"/>
      </g>
      <path id="Union_8" data-name="Union 8" d="M18.311,8.668a27.837,27.837,0,0,0-4.634,8.207C12.414,20.2,12.023,23.76,11.04,29.4A167.284,167.284,0,0,0,9.2,48.457c-.408,7.534-.076,35.794-.011,40.973-.1,3.547-.2,7.212-.259,10.685-.249,14,0,24.9,0,24.9s-.1,7.033-2.336,11.092A11.359,11.359,0,0,1,0,141.249s3.463,7.282,7.664,11.422,8.663,6.483,14.455,6.574,12.767-1.038,18.653-8.023c2.272-2.7,3.176-5.9,4.117-8.966s1.614-5.324,2.624-13.19.968-9.971,1.418-18.274c.408-7.533.076-35.791.011-40.973.1-3.547.2-7.212.259-10.685.249-14,0-24.9,0-24.9s.1-7.032,2.336-11.091,9.293-5.856,9.293-5.856-3.45-6.877-7.652-11.018S41.8.1,36.011,0q-.209,0-.419,0C29.929,0,24.055,1.851,18.311,8.668Z" transform="translate(374.663 339.966) rotate(-169)" fill="#bbc2c6"/>
      <g id="Union_6" data-name="Union 6" transform="matrix(0.982, -0.191, 0.191, 0.982, 280.951, 183.643)" fill="#eee">
        <path d="M 35.5914306640625 159.7484436035156 C 32.35816955566406 159.7484741210938 29.47421073913574 159.15234375 26.77474975585938 157.9260559082031 C 23.58201026916504 156.4756622314453 20.68827056884766 154.1784057617188 17.92817115783691 150.9030151367188 C 16.02287101745605 148.6423034667969 14.47911071777344 145.9101867675781 13.20871067047119 142.5505523681641 C 12.19979095458984 139.8933868408203 11.74391078948975 137.1254730224609 11.11295032501221 133.2945098876953 C 10.93869018554688 132.2364501953125 10.75849056243896 131.1423950195312 10.54773044586182 129.9324035644531 L 10.54617023468018 129.9234924316406 L 10.54495048522949 129.9145355224609 C 9.25593090057373 120.5141677856445 9.149070739746094 119.0953674316406 8.700550079345703 110.8188705444336 C 8.293279647827148 103.30322265625 8.619268417358398 75.37504577636719 8.68915843963623 69.8228759765625 C 8.573796272277832 65.90821075439453 8.486578941345215 62.31476211547852 8.429890632629395 59.14254760742188 C 8.186612129211426 45.47719573974609 8.420923233032227 34.63021087646484 8.429717063903809 34.23408508300781 C 8.424257278442383 33.95474624633789 8.267163276672363 27.22344398498535 6.15531063079834 23.38450813293457 C 4.052910327911377 19.56200981140137 -0.07932949066162109 18.49462890625 -0.1208294928073883 18.48428916931152 L -0.7141295075416565 18.33650970458984 L -0.4515295028686523 17.78436851501465 C -0.3085694909095764 17.48378944396973 3.097970485687256 10.37514877319336 7.313470363616943 6.221068859100342 C 9.552550315856934 4.014129161834717 11.76667022705078 2.410709142684937 14.08233070373535 1.319269061088562 C 16.57785034179688 0.1430290192365646 19.20419120788574 -0.4511509835720062 22.11139106750488 -0.4972309768199921 C 22.32137107849121 -0.5005509853363037 22.53145027160645 -0.5022509694099426 22.73581123352051 -0.5022509694099426 C 26.2066707611084 -0.5022509694099426 29.21263122558594 -0.005450974218547344 31.92549133300781 1.016548991203308 C 35.42039108276367 2.333128929138184 38.52566909790039 4.582828998565674 41.15505218505859 7.703108787536621 C 43.38064956665039 10.34490871429443 44.32007217407227 13.41854858398438 45.22853088378906 16.3910083770752 C 45.27481079101562 16.54242897033691 45.32101058959961 16.69358825683594 45.3673095703125 16.84440994262695 C 46.26705169677734 19.77332878112793 46.97774887084961 22.08684921264648 48.00875091552734 30.11784934997559 C 48.82637023925781 36.48128890991211 48.95547103881836 39.06790924072266 49.21269226074219 44.22113037109375 C 49.2735710144043 45.44096755981445 49.34257125854492 46.82357025146484 49.42956924438477 48.42894744873047 C 49.83676147460938 55.94232177734375 49.51081085205078 83.87224578857422 49.44094085693359 89.42479705810547 C 49.55636596679688 93.34239959716797 49.64360427856445 96.9359130859375 49.70022964477539 100.1052703857422 C 49.94350814819336 113.770622253418 49.70919799804688 124.6176071166992 49.70040512084961 125.0137329101562 C 49.70586395263672 125.2930450439453 49.86295700073242 132.0234680175781 51.97478866577148 135.8624114990234 C 54.07797241210938 139.6871337890625 60.88492965698242 141.4577331542969 60.95344924926758 141.4751434326172 L 61.55567169189453 141.6284484863281 L 61.27703094482422 142.1839141845703 C 61.13467025756836 142.4677124023438 57.74182891845703 149.1824340820312 53.52927017211914 153.3336486816406 C 51.51914978027344 155.3144683837891 48.69163131713867 156.9635467529297 45.35232925415039 158.1026153564453 C 42.38935089111328 159.1133117675781 39.07461166381836 159.6966094970703 36.01871109008789 159.7450561523438 C 35.87541198730469 159.747314453125 35.73165130615234 159.7484436035156 35.5914306640625 159.7484436035156 Z" stroke="none"/>
        <path d="M 35.59142684936523 159.2484436035156 C 35.7313232421875 159.2484436035156 35.87117385864258 159.247314453125 36.01079940795898 159.2451019287109 C 41.80229949951172 159.1533203125 48.97709274291992 157.1175079345703 53.17829895019531 152.9775085449219 C 57.38040542602539 148.8366088867188 60.83009338378906 141.959716796875 60.83009338378906 141.959716796875 C 60.83009338378906 141.959716796875 53.76869583129883 140.1623992919922 51.53669738769531 136.1034240722656 C 49.30379867553711 132.0444030761719 49.20030212402344 125.0127105712891 49.20030212402344 125.0127105712891 C 49.20030212402344 125.0127105712891 49.44959259033203 114.1172943115234 49.20030212402344 100.1142120361328 C 49.13823699951172 96.64076995849609 49.04538345336914 92.97623443603516 48.94084167480469 89.42896270751953 C 49.0060920715332 84.2471923828125 49.33853149414062 55.98856353759766 48.93030166625977 48.45600128173828 C 48.48030090332031 40.15260696411133 48.52350997924805 38.04750061035156 47.51280212402344 30.1815013885498 C 46.50300979614258 22.31550216674805 45.83069610595703 20.05560493469238 44.88930130004883 16.9911060333252 C 43.94879913330078 13.92660522460938 43.0443000793457 10.72171020507812 40.77269744873047 8.025293350219727 C 34.88669586181641 1.040398359298706 27.91081237792969 -0.08910305052995682 22.11930084228516 0.002709859283640981 C 16.32780075073242 0.09450152516365051 11.86559200286865 2.436314105987549 7.66440486907959 6.577209949493408 C 3.463196277618408 10.717209815979 8.839924703352153e-06 17.99910545349121 8.839924703352153e-06 17.99910545349121 C 8.839924703352153e-06 17.99910545349121 4.361404895782471 19.08539772033691 6.593404769897461 23.14350128173828 C 8.826300621032715 27.20250129699707 8.929800033569336 34.235107421875 8.929800033569336 34.235107421875 C 8.929800033569336 34.235107421875 8.680508613586426 45.13050079345703 8.929800033569336 59.13360595703125 C 8.991863250732422 62.60702133178711 9.084696769714355 66.27143859863281 9.189237594604492 69.81871032714844 C 9.124030113220215 74.99758148193359 8.791550636291504 103.2579193115234 9.199800491333008 110.7917938232422 C 9.649800300598145 119.0952072143555 9.75240421295166 120.4542083740234 11.0403003692627 129.8466033935547 C 12.02309226989746 135.4887084960938 12.4136962890625 139.0482025146484 13.67640495300293 142.3737030029297 C 14.64119625091553 144.9252166748047 16.03800964355469 147.8843994140625 18.31050872802734 150.580810546875 C 24.05459213256836 157.3973083496094 29.92886352539062 159.2484741210938 35.59142684936523 159.2484436035156 M 35.59142684936523 160.2484436035156 C 32.28534317016602 160.2484588623047 29.33371734619141 159.6377105712891 26.56794548034668 158.3812866210938 C 23.3060302734375 156.8995056152344 20.35488319396973 154.5587158203125 17.54582214355469 151.2252044677734 C 15.6034049987793 148.9204559326172 14.03173828125 146.1407775878906 12.74105072021484 142.7274017333984 C 11.71455097198486 140.0240173339844 11.25525856018066 137.2352905273438 10.61955070495605 133.3755798339844 C 10.44548797607422 132.3187103271484 10.26548767089844 131.225830078125 10.05513381958008 130.0182037353516 L 10.04957103729248 129.9824523925781 C 8.75788402557373 120.5624618530273 8.650800704956055 119.1405868530273 8.201258659362793 110.8459167480469 C 7.793469905853271 103.3203506469727 8.118844032287598 75.40858459472656 8.189056396484375 69.82716369628906 C 8.073757171630859 65.9130859375 7.98659610748291 62.32148361206055 7.929967403411865 59.15148162841797 C 7.688382148742676 45.58194351196289 7.91743803024292 34.78727340698242 7.929593563079834 34.23373413085938 C 7.921732902526855 33.86172485351562 7.752342700958252 27.32496070861816 5.717237949371338 23.62550163269043 C 3.718863010406494 19.99218940734863 -0.2023036628961563 18.97927284240723 -0.2416786551475525 18.96945953369141 L -1.428261995315552 18.67391777038574 L -0.9030536413192749 17.56960487365723 C -0.7585744857788086 17.26579284667969 2.684988021850586 10.0801477432251 6.962508678436279 5.864939212799072 C 9.242404937744141 3.617751598358154 11.50161266326904 1.982897400856018 13.86913394927979 0.8669806718826294 C 16.43027877807617 -0.3401651382446289 19.12373733520508 -0.9499359726905823 22.10344696044922 -0.9971651434898376 C 22.31653022766113 -1.000540137290955 22.52925872802734 -1.002248525619507 22.73575973510742 -1.002248525619507 C 26.26790428161621 -1.002248525619507 29.33155059814453 -0.4949568212032318 32.10173797607422 0.5486265420913696 C 35.67763519287109 1.89573073387146 38.85223770141602 4.194438934326172 41.53738403320312 7.380897521972656 C 43.82892608642578 10.10095977783203 44.78353118896484 13.22433471679688 45.70669555664062 16.24487686157227 C 45.75292587280273 16.39610481262207 45.799072265625 16.54708480834961 45.84529876708984 16.69771003723145 C 46.75201034545898 19.64935493469238 47.46825790405273 21.9809398651123 48.50465393066406 30.05416870117188 C 49.32477951049805 36.43685531616211 49.45419692993164 39.02993774414062 49.71205139160156 44.19610595703125 C 49.77290344238281 45.41545867919922 49.84188461303711 46.79752349853516 49.92884063720703 48.40187835693359 C 50.33665084838867 55.92684555053711 50.01123809814453 83.83899688720703 49.94102478027344 89.42050170898438 C 50.05634307861328 93.33566284179688 50.14352416992188 96.92730712890625 50.20013427734375 100.0963363647461 C 50.44171905517578 113.6658477783203 50.21266174316406 124.4605407714844 50.20050811767578 125.0140762329102 C 50.20836639404297 125.3860321044922 50.37775802612305 131.9219360351562 52.41286468505859 135.6214141845703 C 54.40713500976562 139.2480621337891 61.01088333129883 140.9737548828125 61.07736206054688 140.9907684326172 L 62.27988433837891 141.2984313964844 L 61.72392654418945 142.4080810546875 C 61.58005142211914 142.6949157714844 58.1509895324707 149.4811859130859 53.88019561767578 153.6897735595703 C 51.81684112548828 155.7230682373047 48.92377853393555 157.4126434326172 45.51375961303711 158.5758361816406 C 42.50263214111328 159.6029663085938 39.13338470458984 160.1957244873047 36.02665328979492 160.2449798583984 C 35.88153076171875 160.2472686767578 35.73511123657227 160.2484436035156 35.59142684936523 160.2484436035156 Z" stroke="none" fill="#eee"/>
      </g>
      <path id="Subtraction_2" data-name="Subtraction 2" d="M-755.246-197.942h0a17.929,17.929,0,0,1-7.36-3.737,28.173,28.173,0,0,1-6.226-7.3,47.573,47.573,0,0,1-3.822-8.681c-.387-1.043-.769-2.071-1.2-3.2l0-.009,0-.008a168.146,168.146,0,0,1-5.454-18.393c-1.829-7.281-6.846-34.8-7.834-40.24-.864-3.838-1.635-7.349-2.292-10.435-2.881-13.53-4.735-24.344-4.753-24.451-.06-.278-1.49-6.842-4.3-10.216a10.939,10.939,0,0,0-7.1-3.613l-.611-.032.153-.592c.083-.322,2.064-7.941,5.415-12.832a24.667,24.667,0,0,1,5.71-6.1,19.155,19.155,0,0,1,7.535-3.316c.178-.037.373-.077.612-.124a28.923,28.923,0,0,1,5.56-.572,22.477,22.477,0,0,1,3.75.309,22.359,22.359,0,0,1,10.336,4.8c2.688,2.167,4.2,5,5.655,7.747l.113.213.112.209c1.443,2.705,2.582,4.842,5.125,12.525,2.018,6.093,2.638,8.607,3.873,13.615.3,1.228.631,2.555,1.016,4.089,1.834,7.3,6.847,34.8,7.834,40.241.861,3.826,1.632,7.336,2.292,10.435,2.9,13.613,4.735,24.344,4.753,24.45.053.249,2.325,12.209,2.583,13.572Z" transform="translate(1159.95 530.034)" fill="#eee" stroke="#eee" stroke-width="1"/>
      <path id="Subtraction_1" data-name="Subtraction 1" d="M-716.759-170.321a19.713,19.713,0,0,1-4.635-.544,25.294,25.294,0,0,1-10.024-5.206,28.208,28.208,0,0,1-6.226-7.3,47.525,47.525,0,0,1-3.823-8.685c-.386-1.041-.767-2.068-1.2-3.193l0-.009,0-.008a167.958,167.958,0,0,1-5.454-18.393c-1.89-7.521-7.231-36.914-7.834-40.241-.855-3.8-1.626-7.306-2.293-10.435-2.733-12.836-4.551-23.283-4.75-24.432l0-.018c-.029-.134-.941-5.115-2.711-14.8l21.7-21.771a23.008,23.008,0,0,1,8.072,4.287c2.69,2.168,4.2,5.006,5.657,7.751l.111.209.011.02.1.189c1.442,2.7,2.58,4.835,5.126,12.525,2.019,6.1,2.639,8.611,3.873,13.614l.028.115c.285,1.157.608,2.466.987,3.975,1.834,7.3,6.847,34.8,7.834,40.24.863,3.831,1.634,7.342,2.292,10.436,2.891,13.577,4.735,24.343,4.753,24.45.061.279,1.515,6.871,4.3,10.216,2.755,3.306,9.594,3.778,9.884,3.8l.621.035-.167.6c-.085.305-2.125,7.53-5.477,12.424a21.583,21.583,0,0,1-7.117,6.242,31.256,31.256,0,0,1-8.849,3.393c-.165.035-.3.062-.419.085A22.971,22.971,0,0,1-716.759-170.321Z" transform="translate(918.761 504.424)" fill="#eee" stroke="#eee" stroke-width="1"/>
    </g>
    <g id="Path_32" data-name="Path 32" transform="translate(356.856 296.245)" fill="#eee">
      <path d="M 18.19097900390625 36.20343017578125 C 13.38299942016602 36.20343017578125 8.862809181213379 34.33110046386719 5.463058948516846 30.93135070800781 C 2.063308954238892 27.53160095214844 0.19097900390625 23.01140975952148 0.19097900390625 18.20343017578125 C 0.19097900390625 13.39545059204102 2.063308954238892 8.875260353088379 5.463058948516846 5.475510120391846 C 8.862809181213379 2.075760126113892 13.38299942016602 0.20343017578125 18.19097900390625 0.20343017578125 C 22.99895858764648 0.20343017578125 27.51914978027344 2.075760126113892 30.91889953613281 5.475510120391846 C 34.31864929199219 8.875260353088379 36.19097900390625 13.39545059204102 36.19097900390625 18.20343017578125 C 36.19097900390625 23.01140975952148 34.31864929199219 27.53160095214844 30.91889953613281 30.93135070800781 C 27.51914978027344 34.33110046386719 22.99895858764648 36.20343017578125 18.19097900390625 36.20343017578125 Z" stroke="none"/>
      <path d="M 18.19097900390625 0.70343017578125 C 13.51655960083008 0.70343017578125 9.121919631958008 2.523750305175781 5.816608428955078 5.829059600830078 C 2.511299133300781 9.134370803833008 0.69097900390625 13.52901077270508 0.69097900390625 18.20343017578125 C 0.69097900390625 22.87784957885742 2.511299133300781 27.27249145507812 5.816608428955078 30.57780075073242 C 9.121919631958008 33.88311004638672 13.51655960083008 35.70343017578125 18.19097900390625 35.70343017578125 C 22.86539840698242 35.70343017578125 27.26004028320312 33.88311004638672 30.56534957885742 30.57780075073242 C 33.87065887451172 27.27249145507812 35.69097900390625 22.87784957885742 35.69097900390625 18.20343017578125 C 35.69097900390625 13.52901077270508 33.87065887451172 9.134370803833008 30.56534957885742 5.829059600830078 C 27.26004028320312 2.523750305175781 22.86539840698242 0.70343017578125 18.19097900390625 0.70343017578125 M 18.19097900390625 -0.29656982421875 C 28.40824890136719 -0.29656982421875 36.69097900390625 7.986160278320312 36.69097900390625 18.20343017578125 C 36.69097900390625 28.42070007324219 28.40824890136719 36.70343017578125 18.19097900390625 36.70343017578125 C 7.973709106445312 36.70343017578125 -0.30902099609375 28.42070007324219 -0.30902099609375 18.20343017578125 C -0.30902099609375 7.986160278320312 7.973709106445312 -0.29656982421875 18.19097900390625 -0.29656982421875 Z" stroke="none" fill="#eee"/>
    </g>
    <g id="Ellipse_2" data-name="Ellipse 2" transform="translate(118.453 178)" fill="#eee" stroke="#eee" stroke-width="1">
      <circle cx="18.5" cy="18.5" r="18.5" stroke="none"/>
      <circle cx="18.5" cy="18.5" r="18" fill="none"/>
    </g>
  </g>
</svg>
